<svg id="Layer_1" data-name="Layer 1" xmlns="http://www.w3.org/2000/svg" viewBox="0 0 844.76 88.75"><title>hirempire inbox logo</title><path d="M0,70V0H19.64V33.33h1c1.67-8.88,7.52-17,21-17,14,0,20.69,8.88,20.69,20.58V70H42.74V43.47c0-7.31-2.82-9.61-11.81-9.61s-11.29,2.19-11.29,9V70Z"/><path d="M68.23,12.54V0H87.87V12.54Zm0,57.47V17.35H87.87V70Z"/><path d="M94.14,70V17.35h18.39V31.14h1c1.46-8.67,6.9-14.84,17.35-14.84,11.6,0,16.2,7.63,16.2,18.18V44.93H127.47V38.77c0-4.39-1.67-6-6.79-6-5.33,0-6.9,1.57-6.9,5.75V70Z"/><path d="M150.25,43.68c0-17.14,12.43-27.38,30-27.38,18.18,0,29.78,9.09,29.78,26a41.69,41.69,0,0,1-.31,5H168.43c.31,6.37,3.13,8.15,11.49,8.15,7.94,0,10-1.36,10-4.49V49.84H209.6V51.1c0,11.7-11.18,20-28.94,20S150.25,63.43,150.25,43.68Zm18.5-6.27H191c-.73-4.49-3.87-6.06-11.18-6.06S169.58,32.92,168.74,37.41Z"/><path d="M215.24,70V17.35h18.39v16h1c1.15-8.78,6-17,19.23-17,12.43,0,18.39,7.52,19.44,17h1c1.15-8.78,6.17-17,19.85-17,13.48,0,19.85,8.57,19.85,20V70H294.44V43.47c0-7.31-2.09-9.61-10.24-9.61s-9.72,2.19-9.72,9V70H254.84V43.47c0-7.31-2.09-9.61-10.24-9.61s-9.72,2.19-9.72,9V70Z"/><path d="M319.93,87.77V17.35h18.39V31.56h1C341,21.11,347.31,16.3,359.64,16.3c16.09,0,25,10.34,25,27.38s-8.67,27.38-24.14,27.38c-12.43,0-18.29-5.85-19.85-14.63h-1V87.77Zm32.6-34.59c9.09,0,12.23-2.51,12.23-9.51s-3.13-9.4-12.23-9.4c-8.78,0-13,1.67-13,9.3v.73C339.58,51.72,343.76,53.19,352.54,53.19Z"/><path d="M389.83,12.54V0h19.64V12.54Zm0,57.47V17.35h19.64V70Z"/><path d="M415.75,70V17.35h18.39V31.14h1c1.46-8.67,6.9-14.84,17.35-14.84,11.6,0,16.2,7.63,16.2,18.18V44.93H449.08V38.77c0-4.39-1.67-6-6.79-6-5.33,0-6.9,1.57-6.9,5.75V70Z"/><path d="M471.85,43.68c0-17.14,12.43-27.38,30-27.38,18.18,0,29.78,9.09,29.78,26a41.69,41.69,0,0,1-.31,5H490c.31,6.37,3.13,8.15,11.49,8.15,7.94,0,10-1.36,10-4.49V49.84h19.64V51.1c0,11.7-11.18,20-28.94,20S471.85,63.43,471.85,43.68Zm18.5-6.27h22.26c-.73-4.49-3.87-6.06-11.18-6.06S491.18,32.92,490.35,37.41Z"/><path d="M551.47,70V0h19.64V70Z"/><path d="M577.38,70V17.35h18.39v16h1c1.15-8.78,6.9-17,21-17s20.9,8.57,20.9,20V70H619.08V43.47c0-7.31-2.72-9.61-11.29-9.61S597,36,597,42.84V70Z"/><path d="M644.57,70V0h19.64V30.93h1c1.57-8.78,7.42-14.63,19.85-14.63,15.46,0,24.14,10.24,24.14,27.38s-8.88,27.38-25,27.38c-12.33,0-18.6-4.81-20.27-15.26h-1V70Zm32.6-16.93c9.09,0,12.23-2.4,12.23-9.4s-3.13-9.51-12.23-9.51c-8.78,0-13,1.46-13,8.88v.73C664.21,51.41,668.39,53.08,677.17,53.08Z"/><path d="M712.9,43.68c0-17.14,12.43-27.38,30.72-27.38s30.72,10.24,30.72,27.38-12.43,27.38-30.72,27.38S712.9,60.71,712.9,43.68Zm42,0c0-7.63-2.4-10.14-11.29-10.14S732.33,36,732.33,43.68s2.4,10,11.29,10S754.9,51.31,754.9,43.68Z"/><path d="M774.86,70l19.64-25.5v-1L774.86,17.35h24l10.76,15.88h1L821,17.35h23.72L825.12,43.16v1L844.76,70h-24L810,54.54h-1L798.58,70Z"/></svg>