<svg id="Layer_1" data-name="Layer 1" xmlns="http://www.w3.org/2000/svg" viewBox="0 0 942.59 103.67"><title>hirempire inbox logo-27-28</title><path d="M97.83,77.93v-70h19.64V41.26h1c1.67-8.88,7.52-17,21-17,14,0,20.69,8.88,20.69,20.58V77.93H140.56V51.39c0-7.31-2.82-9.61-11.81-9.61s-11.29,2.19-11.29,9V77.93Z"/><path d="M166.05,20.46V7.93H185.7V20.46Zm0,57.47V25.27H185.7V77.93Z"/><path d="M192,77.93V25.27h18.39V39.06h1c1.46-8.67,6.9-14.84,17.35-14.84,11.6,0,16.2,7.63,16.2,18.18V52.86H225.3V46.69c0-4.39-1.67-6-6.79-6-5.33,0-6.9,1.57-6.9,5.75V77.93Z"/><path d="M248.07,51.6c0-17.14,12.43-27.38,30-27.38,18.18,0,29.78,9.09,29.78,26a41.69,41.69,0,0,1-.31,5H266.26c.31,6.37,3.13,8.15,11.49,8.15,7.94,0,10-1.36,10-4.49V57.77h19.64V59c0,11.7-11.18,20-28.94,20S248.07,71.35,248.07,51.6Zm18.5-6.27h22.26c-.73-4.49-3.87-6.06-11.18-6.06S267.4,40.84,266.57,45.33Z"/><path d="M313.06,77.93V25.27h18.39v16h1c1.15-8.78,6-17,19.23-17,12.43,0,18.39,7.52,19.44,17h1c1.15-8.78,6.17-17,19.85-17,13.48,0,19.85,8.57,19.85,20V77.93H392.27V51.39c0-7.31-2.09-9.61-10.24-9.61s-9.72,2.19-9.72,9V77.93H352.67V51.39c0-7.31-2.09-9.61-10.24-9.61s-9.72,2.19-9.72,9V77.93Z"/><path d="M417.76,95.7V25.27h18.39V39.48h1c1.67-10.45,7.94-15.26,20.27-15.26,16.09,0,25,10.34,25,27.38S473.77,79,458.3,79c-12.43,0-18.29-5.85-19.85-14.63h-1V95.7Zm32.6-34.59c9.09,0,12.23-2.51,12.23-9.51s-3.13-9.4-12.23-9.4c-8.78,0-13,1.67-13,9.3v.73C437.4,59.65,441.58,61.11,450.36,61.11Z"/><path d="M487.66,20.46V7.93H507.3V20.46Zm0,57.47V25.27H507.3V77.93Z"/><path d="M513.57,77.93V25.27H532V39.06h1c1.46-8.67,6.9-14.84,17.35-14.84,11.6,0,16.2,7.63,16.2,18.18V52.86H546.9V46.69c0-4.39-1.67-6-6.79-6-5.33,0-6.9,1.57-6.9,5.75V77.93Z"/><path d="M569.68,51.6c0-17.14,12.43-27.38,30-27.38,18.18,0,29.78,9.09,29.78,26a41.69,41.69,0,0,1-.31,5H587.86c.31,6.37,3.13,8.15,11.49,8.15,7.94,0,10-1.36,10-4.49V57.77H629V59c0,11.7-11.18,20-28.94,20S569.68,71.35,569.68,51.6Zm18.5-6.27h22.26c-.73-4.49-3.87-6.06-11.18-6.06S589,40.84,588.17,45.33Z"/><path d="M649.3,20.46V7.93h19.64V20.46Zm0,57.47V25.27h19.64V77.93Z"/><path d="M675.21,77.93V25.27H693.6v16h1c1.15-8.78,6.9-17,21-17s20.9,8.57,20.9,20V77.93H716.9V51.39c0-7.31-2.72-9.61-11.29-9.61s-10.76,2.19-10.76,9V77.93Z"/><path d="M742.39,77.93v-70H762V38.85h1c1.57-8.78,7.42-14.63,19.85-14.63,15.46,0,24.14,10.24,24.14,27.38S798.19,79,782.1,79c-12.33,0-18.6-4.81-20.27-15.26h-1V77.93ZM775,61c9.09,0,12.23-2.4,12.23-9.4s-3.13-9.51-12.23-9.51c-8.78,0-13,1.46-13,8.88v.73C762,59.34,766.22,61,775,61Z"/><path d="M810.72,51.6c0-17.14,12.43-27.38,30.72-27.38s30.72,10.24,30.72,27.38S859.73,79,841.44,79,810.72,68.64,810.72,51.6Zm42,0c0-7.63-2.4-10.14-11.29-10.14S830.16,44,830.16,51.6s2.4,10,11.29,10S852.73,59.23,852.73,51.6Z"/><path d="M872.68,77.93l19.64-25.5v-1L872.68,25.27h24l10.76,15.88h1l10.34-15.88h23.72L922.94,51.08v1l19.64,25.81h-24L907.79,62.47h-1L896.4,77.93Z"/><polygon points="88.55 8.12 88.55 78.36 62.03 93.44 71.31 48.65 55.51 48.65 56.96 95.7 44.27 103.67 31.59 95.7 33.05 48.65 17.24 48.65 26.52 93.44 0 78.36 0 8.12 23.33 8.12 21.51 18.63 32.01 18.63 32.01 0 60.24 0 56.54 8.12 56.54 18.63 67.04 18.63 65.22 8.12 88.55 8.12"/></svg>